<svg width="213" height="64" viewBox="0 0 213 64" fill="none" xmlns="http://www.w3.org/2000/svg">
<path fill-rule="evenodd" clip-rule="evenodd" d="M83.1242 28.446C84.4682 27.102 85.1402 24.96 85.1402 22.02V8.57999C85.1402 5.63999 84.4682 3.51199 83.1242 2.19599C81.8082 0.851992 79.6802 0.179993 76.7402 0.179993H66.2402C63.3002 0.179993 61.1582 0.851992 59.8142 2.19599C58.4982 3.51199 57.8402 5.63999 57.8402 8.57999V22.02C57.8402 24.96 58.4982 27.102 59.8142 28.446C61.1582 29.762 63.3002 30.42 66.2402 30.42H76.7402C79.6802 30.42 81.8082 29.762 83.1242 28.446ZM75.0602 6.05999C76.7402 6.05999 77.5802 6.89999 77.5802 8.57999V22.02C77.5802 23.7 76.7402 24.54 75.0602 24.54H67.9202C66.2402 24.54 65.4002 23.7 65.4002 22.02V8.57999C65.4002 6.89999 66.2402 6.05999 67.9202 6.05999H75.0602Z" fill="#121723"/>
<path fill-rule="evenodd" clip-rule="evenodd" d="M149.01 10.68H158.67C161.61 10.68 163.738 11.352 165.054 12.696C166.398 14.012 167.07 16.14 167.07 19.08V21.6C167.07 24.54 166.398 26.682 165.054 28.026C163.738 29.342 161.61 30 158.67 30H141.45V0.599993H149.01V10.68ZM159.51 19.08C159.51 17.4 158.67 16.56 156.99 16.56H149.01V24.12H156.99C158.67 24.12 159.51 23.28 159.51 21.6V19.08Z" fill="#121723"/>
<path d="M177.99 30H170.43V0.599993H177.99V30Z" fill="#121723"/>
<path d="M181.78 12.57V18.03H212.86V12.57H181.78Z" fill="#121723"/>
<path fill-rule="evenodd" clip-rule="evenodd" d="M94.1964 55.02C94.1964 57.96 93.5244 60.102 92.1804 61.446C90.8644 62.762 88.7364 63.42 85.7964 63.42H75.2964C72.3564 63.42 70.2144 62.762 68.8704 61.446C67.5544 60.102 66.8964 57.96 66.8964 55.02V41.58C66.8964 38.64 67.5544 36.512 68.8704 35.196C70.2144 33.852 72.3564 33.18 75.2964 33.18H85.7964C88.7364 33.18 90.8644 33.852 92.1804 35.196C93.5244 36.512 94.1964 38.64 94.1964 41.58V55.02ZM86.6364 41.58C86.6364 39.9 85.7964 39.06 84.1164 39.06H76.9764C75.2964 39.06 74.4564 39.9 74.4564 41.58V55.02C74.4564 56.7 75.2964 57.54 76.9764 57.54H84.1164C85.7964 57.54 86.6364 56.7 86.6364 55.02V41.58Z" fill="#121723"/>
<path fill-rule="evenodd" clip-rule="evenodd" d="M147.349 33.18C148.049 33.18 149.309 33.32 151.129 33.6V39.27H149.449C149.029 39.27 148.651 39.41 148.315 39.69C147.979 39.942 147.727 40.222 147.559 40.53L143.569 48.09L151.506 62.5385L162.461 33.6H170.861L181.991 63H173.801L171.911 57.75H161.411L159.521 63H143.779L137.269 51.03H133.489V63H125.929V33.6H133.489V45.15H137.269L141.469 37.17C142.085 35.994 142.841 35.042 143.737 34.314C144.661 33.558 145.865 33.18 147.349 33.18ZM166.661 42.42L170.021 52.29H163.301L166.661 42.42Z" fill="#121723"/>
<path d="M190.39 56.7H182.83V63H190.39V56.7Z" fill="#121723"/>
<path d="M103.792 53.76C106.788 53.76 109.966 53.62 113.326 53.34V63H120.886V33.6H113.326V47.46C110.162 47.74 107.432 47.88 105.136 47.88C104.492 47.88 103.974 47.698 103.582 47.334C103.218 46.942 103.036 46.424 103.036 45.78V33.6H95.4761V45.78C95.4761 48.524 96.1201 50.54 97.4081 51.828C98.6961 53.116 100.824 53.76 103.792 53.76Z" fill="#121723"/>
<path d="M50.5115 63H58.0715V39.48H66.8915V33.6H41.6915V39.48H50.5115V63Z" fill="#121723"/>
<path d="M26.14 63H18.58V44.94L8.50002 63H0.52002V33.6H8.08002V51.66L18.16 33.6H26.14V63Z" fill="#121723"/>
<path d="M122.545 30.42C126.661 30.42 131.841 30.14 138.085 29.58V23.91C136.265 24.022 134.739 24.12 133.507 24.204C132.303 24.288 131.309 24.344 130.525 24.372L128.257 24.456C127.501 24.484 126.773 24.512 126.073 24.54H124.141C123.553 24.54 123.063 24.358 122.671 23.994C122.307 23.602 122.125 23.084 122.125 22.44V8.99999C122.125 7.31999 122.965 6.47999 124.645 6.47999H138.085V0.599993H122.965C120.025 0.599993 117.883 1.27199 116.539 2.61599C115.223 3.93199 114.565 6.05999 114.565 8.99999V22.44C114.565 25.184 115.209 27.2 116.497 28.488C117.785 29.776 119.801 30.42 122.545 30.42Z" fill="#121723"/>
<path d="M112.04 29.58C105.796 30.14 100.616 30.42 96.4999 30.42C93.7559 30.42 91.7399 29.776 90.4519 28.488C89.1638 27.2 88.5199 25.184 88.5199 22.44V8.99999C88.5199 6.05999 89.1778 3.93199 90.4939 2.61599C91.8379 1.27199 93.9799 0.599993 96.9199 0.599993H112.04V6.47999H98.5999C96.9199 6.47999 96.0798 7.31999 96.0798 8.99999V22.44C96.0798 23.084 96.2619 23.602 96.6259 23.994C97.0179 24.358 97.5079 24.54 98.0958 24.54H100.028C100.728 24.512 101.456 24.484 102.212 24.456L104.48 24.372C105.264 24.344 106.258 24.288 107.462 24.204C108.694 24.12 110.22 24.022 112.04 23.91V29.58Z" fill="#121723"/>
<path fill-rule="evenodd" clip-rule="evenodd" d="M28.8618 0.599993H46.5018C49.4418 0.599993 51.5698 1.27199 52.8858 2.61599C54.2298 3.93199 54.9018 6.05999 54.9018 8.99999V13.2C54.9018 16.14 54.2298 18.282 52.8858 19.626C51.5698 20.942 49.4418 21.6 46.5018 21.6H36.4218V30H28.8618V0.599993ZM47.3418 8.99999C47.3418 7.31999 46.5018 6.47999 44.8218 6.47999H36.4218V15.72H44.8218C46.5018 15.72 47.3418 14.88 47.3418 13.2V8.99999Z" fill="#121723"/>
<path d="M25.72 0.599992C23.9 0.319993 22.64 0.179993 21.94 0.179993C20.456 0.179993 19.252 0.557993 18.328 1.31399C17.432 2.04199 16.676 2.99399 16.06 4.16999L11.86 12.15H8.08002V0.599992H0.52002V30H8.08002V18.03H11.86L18.37 30H26.35L18.16 15.09L22.15 7.52999C22.318 7.22199 22.57 6.94199 22.906 6.68999C23.242 6.40999 23.62 6.26999 24.04 6.26999H25.72V0.599992Z" fill="#121723"/>
</svg>
